Coordinates
version=1
nRows=13
nColumns=40
inDegrees=yes

Units are S.I. units (second, meters, Newtons, ...)
If the header above contains a line with 'inDegrees', this indicates whether rotational values are in degrees (yes) or radians (no).

endheader
time	pelvis_tilt	pelvis_list	pelvis_rotation	pelvis_tx	pelvis_ty	pelvis_tz	hip_flexion_r	hip_adduction_r	hip_rotation_r	knee_angle_r	knee_angle_r_beta	ankle_angle_r	subtalar_angle_r	mtp_angle_r	hip_flexion_l	hip_adduction_l	hip_rotation_l	knee_angle_l	knee_angle_l_beta	ankle_angle_l	subtalar_angle_l	mtp_angle_l	lumbar_extension	lumbar_bending	lumbar_rotation	arm_flex_r	arm_add_r	arm_rot_r	elbow_flex_r	pro_sup_r	wrist_flex_r	wrist_dev_r	arm_flex_l	arm_add_l	arm_rot_l	elbow_flex_l	pro_sup_l	wrist_flex_l	wrist_dev_l
      1.41000000	     -2.15741655	      8.72160365	    -86.39500938	      0.24480474	      0.96818949	      1.29522981	     13.10090284	      5.76999841	     -3.25620755	     12.67877470	      0.22128636	      1.93409236	      0.00000000	      0.00000000	     31.95990997	     -3.48837888	     -0.82135343	     58.05782811	      1.01330026	     -3.29938801	      0.00000000	      0.00000000	      4.23185154	      0.84872352	      1.05928720	      0.00000000	      0.00000000	      0.00000000	      0.00000000	      0.00000000	      0.00000000	      0.00000000	      0.00000000	      0.00000000	      0.00000000	      0.00000000	      0.00000000	      0.00000000	      0.00000000
      1.42000000	     -1.85079144	      9.02964180	    -86.59184770	      0.24453793	      0.96852225	      1.31053638	     11.88538678	      5.57438975	     -3.01700341	     11.69422139	      0.20410267	      2.31521162	      0.00000000	      0.00000000	     33.15775403	     -3.11655177	     -1.08218701	     55.28841121	      0.96496481	     -2.58559185	      0.00000000	      0.00000000	      4.54362361	      0.42459941	      1.22687422	      0.00000000	      0.00000000	      0.00000000	      0.00000000	      0.00000000	      0.00000000	      0.00000000	      0.00000000	      0.00000000	      0.00000000	      0.00000000	      0.00000000	      0.00000000	      0.00000000
      1.43000000	     -1.44135074	      8.79058025	    -87.06221198	      0.24387418	      0.96929395	      1.32615418	     10.02684931	      5.38661714	     -2.19738299	     10.64803980	      0.18584335	      2.55442715	     -0.00000000	      0.00000000	     33.47217110	     -2.90572117	     -1.74634698	     52.02669710	      0.90803716	     -2.05610641	      0.00000000	     -0.00000000	      4.19037280	     -0.06218370	      1.64717316	      0.00000000	      0.00000000	      0.00000000	      0.00000000	      0.00000000	      0.00000000	     -0.00000000	      0.00000000	      0.00000000	      0.00000000	      0.00000000	      0.00000000	      0.00000000	     -0.00000000
      1.44000000	     -1.16035784	      8.80309688	    -87.40650673	      0.24349934	      0.96916974	      1.34176182	      8.47311908	      5.24290901	     -1.71289798	      9.64330165	      0.16830736	      2.89715179	      0.00000000	      0.00000000	     33.98741647	     -2.69086590	     -2.16990362	     48.54484543	      0.84726739	     -1.58154540	      0.00000000	      0.00000000	      4.16907345	     -0.40143906	      1.95127968	      0.00000000	      0.00000000	      0.00000000	      0.00000000	      0.00000000	      0.00000000	      0.00000000	      0.00000000	      0.00000000	      0.00000000	      0.00000000	      0.00000000	      0.00000000	      0.00000000
      1.45000000	     -0.90872818	      8.81456521	    -87.80816167	      0.24302929	      0.96856725	      1.35733262	      6.97800823	      5.12414451	     -1.12690313	      8.75048108	      0.15272471	      3.25311204	      0.00000000	      0.00000000	     34.37938587	     -2.58260357	     -2.73064623	     44.79512063	      0.78182234	     -1.19537387	      0.00000000	      0.00000000	      4.13101767	     -0.70902564	      2.25315578	      0.00000000	      0.00000000	      0.00000000	      0.00000000	      0.00000000	      0.00000000	      0.00000000	      0.00000000	      0.00000000	      0.00000000	      0.00000000	      0.00000000	      0.00000000	      0.00000000
      1.46000000	     -0.72405616	      8.77614077	    -88.18155116	      0.24265280	      0.96755673	      1.37299094	      5.43239018	      5.05086159	     -0.58515884	      7.87442918	      0.13743472	      3.62279853	      0.00000000	      0.00000000	     34.61321998	     -2.52386827	     -3.28121489	     40.82000654	      0.71244351	     -0.84813141	      0.00000000	      0.00000000	      4.03553399	     -0.93233900	      2.54727563	      0.00000000	      0.00000000	      0.00000000	      0.00000000	      0.00000000	      0.00000000	      0.00000000	      0.00000000	      0.00000000	      0.00000000	      0.00000000	      0.00000000	      0.00000000	      0.00000000
      1.47000000	     -0.57628285	      8.74227615	    -88.56183627	      0.24231973	      0.96609857	      1.38865620	      3.93148392	      4.98914980	     -0.03795300	      7.07465544	      0.12347603	      4.03296864	      0.00000000	      0.00000000	     34.75782378	     -2.51145795	     -3.90866200	     36.65679748	      0.63978181	     -0.54937046	      0.00000000	      0.00000000	      3.93717786	     -1.10780613	      2.82113123	      0.00000000	      0.00000000	      0.00000000	      0.00000000	      0.00000000	      0.00000000	      0.00000000	      0.00000000	      0.00000000	      0.00000000	      0.00000000	      0.00000000	      0.00000000	      0.00000000
      1.48000000	     -0.51323602	      8.94667299	    -88.87771827	      0.24213852	      0.96384749	      1.40426036	      2.76887648	      4.97753460	      0.37620917	      6.43575145	      0.11232505	      4.49285527	      0.00000000	      0.00000000	     35.13223615	     -2.49744536	     -4.38607919	     32.43307777	      0.56606399	     -0.11735564	      0.00000000	      0.00000000	      4.13196962	     -1.20052882	      2.99779130	      0.00000000	      0.00000000	      0.00000000	      0.00000000	      0.00000000	      0.00000000	      0.00000000	      0.00000000	      0.00000000	      0.00000000	      0.00000000	      0.00000000	      0.00000000	      0.00000000
      1.49000000	     -0.42996527	      8.68934402	    -89.17715128	      0.24212546	      0.96190585	      1.42014780	      1.02880728	      4.93698733	      0.87098304	      5.67431028	      0.09903540	      4.92442865	      0.00000000	     -0.00000000	     34.89491954	     -2.46915080	     -5.08580667	     28.05587402	      0.48966738	      0.07776398	      0.00000000	      0.00000000	      3.74814306	     -1.28404694	      3.20052502	      0.00000000	     -0.00000000	     -0.00000000	      0.00000000	      0.00000000	      0.00000000	      0.00000000	     -0.00000000	      0.00000000	      0.00000000	      0.00000000	      0.00000000	     -0.00000000	     -0.00000000
      1.50000000	     -0.48654644	      8.97902824	    -89.39720211	      0.24229644	      0.95879199	      1.43573060	      0.06380792	      4.99789002	      1.16601166	      5.25001340	      0.09163002	      5.43532804	      0.00000000	      0.00000000	     35.31024320	     -2.43402775	     -5.37446977	     23.81788169	      0.41570046	      0.60998701	      0.00000000	      0.00000000	      4.01747153	     -1.22008223	      3.30808466	      0.00000000	      0.00000000	      0.00000000	      0.00000000	      0.00000000	      0.00000000	      0.00000000	      0.00000000	      0.00000000	      0.00000000	      0.00000000	      0.00000000	      0.00000000	      0.00000000
      1.51000000	     -0.45546379	      8.90862572	    -89.54538737	      0.24276466	      0.95592543	      1.45169059	     -1.39643361	      4.95366944	      1.41336447	      4.67379031	      0.08157303	      6.05141014	      0.00000000	      0.00000000	     35.22532980	     -2.22259315	     -5.61384819	     19.52841881	      0.34083521	      0.87796000	      0.00000000	      0.00000000	      3.87168429	     -1.25657753	      3.39876270	      0.00000000	      0.00000000	      0.00000000	      0.00000000	      0.00000000	      0.00000000	      0.00000000	      0.00000000	      0.00000000	      0.00000000	      0.00000000	      0.00000000	      0.00000000	      0.00000000
      1.52000000	     -0.49400657	      8.80705772	    -89.64865539	      0.24342752	      0.95286069	      1.46767315	     -2.79951877	      4.95888107	      1.59219255	      4.27511988	      0.07461492	      6.53210278	      0.00000000	      0.00000000	     35.09974695	     -1.99110269	     -5.46837575	     15.42727032	      0.26925666	      1.28941507	      0.00000000	      0.00000000	      3.66971148	     -1.18683773	      3.33016670	      0.00000000	      0.00000000	      0.00000000	      0.00000000	      0.00000000	      0.00000000	      0.00000000	      0.00000000	      0.00000000	      0.00000000	      0.00000000	      0.00000000	      0.00000000	      0.00000000
      1.53000000	     -0.61784329	      9.01998142	    -89.71930543	      0.24419448	      0.94909483	      1.48364377	     -3.77892499	      5.04425810	      1.68410022	      4.05488319	      0.07077106	      7.10037427	     -0.00000000	      0.00000000	     35.34637149	     -1.78630254	     -4.82597130	     11.68764344	      0.20398786	      1.92704929	      0.00000000	      0.00000000	      3.85084107	     -1.03703836	      3.34911235	      0.00000000	     -0.00000000	     -0.00000000	      0.00000000	      0.00000000	      0.00000000	      0.00000000	     -0.00000000	      0.00000000	      0.00000000	      0.00000000	      0.00000000	      0.00000000	      0.00000000
